HIERARCHY
ROOT Hips
{
  OFFSET 365.14 88.179 197.519
  CHANNELS 6 Xposition Yposition Zposition Zrotation Xrotation Yrotation
  JOINT RightUpLeg
  {
    OFFSET -9.25084 -1.53971 -0.0324706
    CHANNELS 3 Zrotation Xrotation Yrotation
    JOINT RightLeg
    {
      OFFSET 0.0147984 -41.8767 0.0743683
      CHANNELS 3 Zrotation Xrotation Yrotation
      JOINT RightFoot
      {
        OFFSET 0.58129 -42.7665 -0.0966173
        CHANNELS 3 Zrotation Xrotation Yrotation
        End Site
        {
          OFFSET 0 -7.69 17.5
        }
      }
    }
  }
  JOINT LeftUpLeg
  {
    OFFSET 9.27183 -1.63567 0.0208533
    CHANNELS 3 Zrotation Xrotation Yrotation
    JOINT LeftLeg
    {
      OFFSET 0.0380064 -41.894 -0.0332375
      CHANNELS 3 Zrotation Xrotation Yrotation
      JOINT LeftFoot
      {
        OFFSET -0.00137207 -40.7578 0.276477
        CHANNELS 3 Zrotation Xrotation Yrotation
        End Site
        {
          OFFSET 0 -7.69 17.5
        }
      }
    }
  }
  JOINT Spine
  {
    OFFSET 0.0273715 14.2953 0.0132618
    CHANNELS 3 Zrotation Xrotation Yrotation
    JOINT Spine1
    {
      OFFSET 0.0356242 9.71545 0.0178671
      CHANNELS 3 Zrotation Xrotation Yrotation
      JOINT Spine2
      {
        OFFSET 0.0275401 10.1205 0.00234803
        CHANNELS 3 Zrotation Xrotation Yrotation
        JOINT Spine3
        {
          OFFSET 0.0388833 9.71499 0.00573168
          CHANNELS 3 Zrotation Xrotation Yrotation
          JOINT Neck
          {
            OFFSET 0.0812761 10.3796 0.11061
            CHANNELS 3 Zrotation Xrotation Yrotation
            JOINT Head
            {
              OFFSET 0.0694951 9.4737 0.0873993
              CHANNELS 3 Zrotation Xrotation Yrotation
              End Site
              {
                OFFSET 0 15.95 0
              }
            }
          }
          JOINT RightShoulder
          {
            OFFSET -3.16911 6.92878 0.0176909
            CHANNELS 3 Zrotation Xrotation Yrotation
            JOINT RightArm
            {
              OFFSET -12.7939 0.0472484 0.0511932
              CHANNELS 3 Zrotation Xrotation Yrotation
              JOINT RightForeArm
              {
                OFFSET -26.5086 -0.00989181 0.0576382
                CHANNELS 3 Zrotation Xrotation Yrotation
                JOINT RightHand
                {
                  OFFSET -26.0357 0.339815 -0.212656
                  CHANNELS 3 Zrotation Xrotation Yrotation
                  JOINT RightHandThumb1
                  {
                    OFFSET -2.48905 0.190105 3.12053
                    CHANNELS 3 Zrotation Xrotation Yrotation
                    JOINT RightHandThumb2
                    {
                      OFFSET -3.68274 0 0
                      CHANNELS 3 Zrotation Xrotation Yrotation
                      JOINT RightHandThumb3
                      {
                        OFFSET -2.55832 0 0
                        CHANNELS 3 Zrotation Xrotation Yrotation
                        End Site
                        {
                          OFFSET -2.194 0 0
                        }
                      }
                    }
                  }
                  JOINT RightInHandIndex
                  {
                    OFFSET -3.22368 0.508421 1.97842
                    CHANNELS 3 Zrotation Xrotation Yrotation
                    JOINT RightHandIndex1
                    {
                      OFFSET -5.21684 -0.091368 0.999158
                      CHANNELS 3 Zrotation Xrotation Yrotation
                      JOINT RightHandIndex2
                      {
                        OFFSET -3.61937 0 0
                        CHANNELS 3 Zrotation Xrotation Yrotation
                        JOINT RightHandIndex3
                        {
                          OFFSET -2.0521 0 0
                          CHANNELS 3 Zrotation Xrotation Yrotation
                          End Site
                          {
                            OFFSET -1.805 0 0
                          }
                        }
                      }
                    }
                  }
                  JOINT RightInHandMiddle
                  {
                    OFFSET -3.38211 0.517263 0.756737
                    CHANNELS 3 Zrotation Xrotation Yrotation
                    JOINT RightHandMiddle1
                    {
                      OFFSET -5.17411 -0.084 0.313895
                      CHANNELS 3 Zrotation Xrotation Yrotation
                      JOINT RightHandMiddle2
                      {
                        OFFSET -3.94947 0 0
                        CHANNELS 3 Zrotation Xrotation Yrotation
                        JOINT RightHandMiddle3
                        {
                          OFFSET -2.47579 0 0
                          CHANNELS 3 Zrotation Xrotation Yrotation
                          End Site
                          {
                            OFFSET -1.975 0 0
                          }
                        }
                      }
                    }
                  }
                  JOINT RightInHandRing
                  {
                    OFFSET -3.36516 0.537895 -0.128947
                    CHANNELS 3 Zrotation Xrotation Yrotation
                    JOINT RightHandRing1
                    {
                      OFFSET -4.63474 -0.022105 -0.478947
                      CHANNELS 3 Zrotation Xrotation Yrotation
                      JOINT RightHandRing2
                      {
                        OFFSET -3.44238 0 0
                        CHANNELS 3 Zrotation Xrotation Yrotation
                        JOINT RightHandRing3
                        {
                          OFFSET -2.3881 0 0
                          CHANNELS 3 Zrotation Xrotation Yrotation
                          End Site
                          {
                            OFFSET -1.857 0 0
                          }
                        }
                      }
                    }
                  }
                  JOINT RightInHandPinky
                  {
                    OFFSET -3.16105 0.469368 -1.20179
                    CHANNELS 3 Zrotation Xrotation Yrotation
                    JOINT RightHandPinky1
                    {
                      OFFSET -4.14105 -0.022105 -1.09053
                      CHANNELS 3 Zrotation Xrotation Yrotation
                      JOINT RightHandPinky2
                      {
                        OFFSET -2.75653 0 0
                        CHANNELS 3 Zrotation Xrotation Yrotation
                        JOINT RightHandPinky3
                        {
                          OFFSET -1.74189 0 0
                          CHANNELS 3 Zrotation Xrotation Yrotation
                          End Site
                          {
                            OFFSET -1.645 0 0
                          }
                        }
                      }
                    }
                  }
                }
              }
            }
          }
          JOINT LeftShoulder
          {
            OFFSET 3.24184 6.89832 -0.0228965
            CHANNELS 3 Zrotation Xrotation Yrotation
            JOINT LeftArm
            {
              OFFSET 12.8376 -0.0155948 -0.0448787
              CHANNELS 3 Zrotation Xrotation Yrotation
              JOINT LeftForeArm
              {
                OFFSET 26.5019 -0.0237061 -0.00609661
                CHANNELS 3 Zrotation Xrotation Yrotation
                JOINT LeftHand
                {
                  OFFSET 25.9931 -0.0767526 0.00928659
                  CHANNELS 3 Zrotation Xrotation Yrotation
                  JOINT LeftHandThumb1
                  {
                    OFFSET 2.48905 0.190105 3.12053
                    CHANNELS 3 Zrotation Xrotation Yrotation
                    JOINT LeftHandThumb2
                    {
                      OFFSET 3.68274 0 0
                      CHANNELS 3 Zrotation Xrotation Yrotation
                      JOINT LeftHandThumb3
                      {
                        OFFSET 2.55832 0 0
                        CHANNELS 3 Zrotation Xrotation Yrotation
                        End Site
                        {
                          OFFSET 2.194 0 0
                        }
                      }
                    }
                  }
                  JOINT LeftInHandIndex
                  {
                    OFFSET 3.22368 0.508421 1.97842
                    CHANNELS 3 Zrotation Xrotation Yrotation
                    JOINT LeftHandIndex1
                    {
                      OFFSET 5.21684 -0.091368 0.999158
                      CHANNELS 3 Zrotation Xrotation Yrotation
                      JOINT LeftHandIndex2
                      {
                        OFFSET 3.61937 0 0
                        CHANNELS 3 Zrotation Xrotation Yrotation
                        JOINT LeftHandIndex3
                        {
                          OFFSET 2.0521 0 0
                          CHANNELS 3 Zrotation Xrotation Yrotation
                          End Site
                          {
                            OFFSET 1.805 0 0
                          }
                        }
                      }
                    }
                  }
                  JOINT LeftInHandMiddle
                  {
                    OFFSET 3.38211 0.517263 0.756737
                    CHANNELS 3 Zrotation Xrotation Yrotation
                    JOINT LeftHandMiddle1
                    {
                      OFFSET 5.17411 -0.084 0.313895
                      CHANNELS 3 Zrotation Xrotation Yrotation
                      JOINT LeftHandMiddle2
                      {
                        OFFSET 3.94947 0 0
                        CHANNELS 3 Zrotation Xrotation Yrotation
                        JOINT LeftHandMiddle3
                        {
                          OFFSET 2.47579 0 0
                          CHANNELS 3 Zrotation Xrotation Yrotation
                          End Site
                          {
                            OFFSET 1.975 0 0
                          }
                        }
                      }
                    }
                  }
                  JOINT LeftInHandRing
                  {
                    OFFSET 3.36516 0.537895 -0.128947
                    CHANNELS 3 Zrotation Xrotation Yrotation
                    JOINT LeftHandRing1
                    {
                      OFFSET 4.63474 -0.022105 -0.478947
                      CHANNELS 3 Zrotation Xrotation Yrotation
                      JOINT LeftHandRing2
                      {
                        OFFSET 3.44238 0 0
                        CHANNELS 3 Zrotation Xrotation Yrotation
                        JOINT LeftHandRing3
                        {
                          OFFSET 2.3881 0 0
                          CHANNELS 3 Zrotation Xrotation Yrotation
                          End Site
                          {
                            OFFSET 1.857 0 0
                          }
                        }
                      }
                    }
                  }
                  JOINT LeftInHandPinky
                  {
                    OFFSET 3.16105 0.469368 -1.20179
                    CHANNELS 3 Zrotation Xrotation Yrotation
                    JOINT LeftHandPinky1
                    {
                      OFFSET 4.14105 -0.022105 -1.09053
                      CHANNELS 3 Zrotation Xrotation Yrotation
                      JOINT LeftHandPinky2
                      {
                        OFFSET 2.75653 0 0
                        CHANNELS 3 Zrotation Xrotation Yrotation
                        JOINT LeftHandPinky3
                        {
                          OFFSET 1.74189 0 0
                          CHANNELS 3 Zrotation Xrotation Yrotation
                          End Site
                          {
                            OFFSET 1.645 0 0
                          }
                        }
                      }
                    }
                  }
                }
              }
            }
          }
        }
      }
    }
  }
}
MOTION
Frames: 2
Frame Time: 0.00833333
2.615140000000000327e+03 8.817900000000000205e+01 1.975190000000000055e+02 2.479789999999999850e+01 1.235349999999999859e+01 -6.786159999999999570e+01 -1.323860000000000170e+01 -5.705989999999999895e+01 -1.093580000000000041e+01 -3.239290000000000003e+00 2.319030000000000058e+01 -1.475539999999999807e+01 9.068759999999997490e+00 8.408820000000000405e+00 2.498000000000000398e+01 1.448729999999999762e+01 -4.828929999999999012e+01 2.333840000000000359e-01 5.068400000000000460e+00 3.099869999999999948e+01 -2.967520000000000158e-01 -1.527749999999999808e+01 -1.055569999999999986e+01 -1.588770000000000060e+01 -5.130309999999999704e+00 1.451570000000000071e+01 1.493839999999999790e+01 -9.393939999999999513e-01 3.606869999999999798e+00 3.679330000000000211e+00 -1.595219999999999860e+00 5.714540000000000397e+00 6.061929999999999374e+00 -3.205719999999999681e-01 -4.529660000000000353e-01 -5.641939999999999733e-01 -3.209349999999999703e-01 -4.582240000000000202e-01 -5.619940000000001046e-01 -6.455119999999999969e+00 -8.651809999999997558e+00 -9.675210000000003419e+00 3.557709999999998374e-01 -1.392210000000000036e+01 2.157710000000000150e+01 7.702069999999999084e+01 6.472940000000004801e-02 5.334759999999999280e+01 2.616029999999999944e+01 -6.131170000000000897e+01 1.638089999999999691e+01 1.863210000000000477e+01 -2.455469999999999686e+01 -2.544839999999999947e+01 2.818400000000000105e+01 1.072940000000000005e+01 1.915919999999999845e+01 2.712849999999999896e-14 2.745709999999999803e-15 -1.000000000000000000e+01 -1.807589999999999066e-15 -1.093320000000000182e-15 -1.000000000000000000e+01 0.000000000000000000e+00 -4.770830000000000256e-15 -1.590280000000000471e-15 1.998179999999999978e+01 8.718970000000000331e-01 2.396399999999999864e+00 2.400000000000000000e+01 5.963539999999999081e-15 1.749310000000001282e-14 2.000000000000000000e+01 8.746530000000003702e-15 -4.770830000000003411e-15 0.000000000000000000e+00 -4.770830000000000256e-15 -1.590280000000000471e-15 2.000000000000000000e+01 7.156249999999997906e-15 2.862499999999999793e-14 2.400000000000000000e+01 -1.987849999999998568e-15 1.272220000000000308e-14 2.000000000000000000e+01 0.000000000000000000e+00 7.951389999999999226e-15 0.000000000000000000e+00 -4.770830000000000256e-15 -1.590280000000000471e-15 1.997479999999999833e+01 -1.025649999999999951e+00 -2.819380000000000219e+00 2.400000000000000000e+01 3.578119999999999853e-15 1.590280000000000116e-14 2.000000000000000000e+01 -1.590280000000000077e-15 -2.226389999999999639e-14 0.000000000000000000e+00 -4.770830000000000256e-15 -1.590280000000000471e-15 1.978150000000000119e+01 -3.009479999999999933e+00 -8.305149999999999366e+00 2.400000000000000000e+01 2.663709999999999890e-14 1.908330000000000147e-14 2.000000000000000000e+01 -1.590279999999999880e-15 1.272219999999999993e-14 1.345359999999999800e+01 -1.433130000000000059e+01 -3.351819999999999311e+01 -2.040729999999999933e+01 3.413989999999999014e+01 -7.786309999999998865e+01 2.793499999999999872e+01 -5.958429999999999893e+01 3.249079999999999302e+01 -1.766829999999999856e+01 -2.601100000000000279e+01 1.151269999999999882e+01 -2.818400000000000105e+01 1.072940000000000005e+01 -1.915919999999999845e+01 1.993850000000000006e-14 -3.180550000000000771e-15 1.000000000000000000e+01 -1.881689999999999540e-14 -3.180550000000001165e-15 1.000000000000000000e+01 1.590279999999999880e-15 3.180549999999999982e-15 7.951390000000001198e-16 -1.998179999999999978e+01 8.718970000000000331e-01 -2.396399999999999864e+00 -2.400000000000000000e+01 1.272219999999999993e-14 -9.541660000000000512e-15 -2.000000000000000000e+01 9.541660000000000512e-15 0.000000000000000000e+00 1.590279999999999880e-15 3.180549999999999982e-15 7.951390000000001198e-16 -2.000000000000000000e+01 6.361109999999999741e-15 -3.180549999999999982e-15 -2.400000000000000000e+01 -4.770830000000000256e-15 -6.361110000000002108e-15 -2.000000000000000000e+01 3.180549999999998404e-15 1.590279999999999801e-14 1.590279999999999880e-15 3.180549999999999982e-15 7.951390000000001198e-16 -1.997479999999999833e+01 -1.025649999999999951e+00 2.819380000000000219e+00 -2.400000000000000000e+01 6.361109999999999741e-15 -1.590280000000000116e-14 -2.000000000000000000e+01 -2.385420000000000805e-15 0.000000000000000000e+00 1.590279999999999880e-15 3.180549999999999982e-15 7.951390000000001198e-16 -1.978150000000000119e+01 -3.009479999999999933e+00 8.305149999999999366e+00 -2.400000000000000000e+01 1.590280000000000274e-15 -6.361110000000000530e-15 -2.000000000000000000e+01 1.033679999999999868e-14 3.180549999999999193e-15
2.615170000000000073e+03 8.817900000000000205e+01 1.975920000000000130e+02 2.468019999999999570e+01 1.212860000000000227e+01 -6.809139999999999304e+01 -1.303130000000000166e+01 -5.687529999999999575e+01 -1.060270000000000401e+01 -3.290329999999999977e+00 2.308680000000000021e+01 -1.460719999999999708e+01 9.095140000000000668e+00 8.467819999999999681e+00 2.498409999999999798e+01 1.449160000000000004e+01 -4.805649999999999977e+01 4.204759999999998499e-01 4.975249999999999062e+00 3.108759999999999479e+01 -1.702400000000000024e-01 -1.523780000000000001e+01 -1.062509999999999799e+01 -1.589130000000000109e+01 -5.148930000000000895e+00 1.457130000000000081e+01 1.503420000000000023e+01 -9.360430000000000694e-01 3.618510000000000559e+00 3.702860000000000262e+00 -1.591150000000000064e+00 5.729550000000000587e+00 6.098670000000001146e+00 -3.205399999999999916e-01 -4.496950000000000114e-01 -5.641939999999998623e-01 -3.209029999999999383e-01 -4.549730000000000718e-01 -5.619939999999999936e-01 -6.460679999999999978e+00 -8.543070000000000164e+00 -9.881010000000001625e+00 4.381899999999998574e-01 -1.372039999999999793e+01 2.147150000000000603e+01 7.743080000000001917e+01 -4.595119999999996985e-02 5.306299999999999528e+01 2.755630000000000379e+01 -6.118189999999999884e+01 1.816700000000000870e+01 1.858299999999999486e+01 -2.448140000000000072e+01 -2.543250000000000099e+01 2.818400000000000105e+01 1.072940000000000005e+01 1.915919999999999845e+01 2.297220000000000043e-14 -2.509660000000000631e-15 -1.000000000000000000e+01 -4.521469999999999691e-14 0.000000000000000000e+00 -1.000000000000000000e+01 0.000000000000000000e+00 -4.770830000000000256e-15 0.000000000000000000e+00 1.998179999999999978e+01 8.718970000000000331e-01 2.396399999999999864e+00 2.400000000000000000e+01 -5.963539999999999081e-15 -3.816669999999999756e-14 2.000000000000000000e+01 -5.565969999999999210e-15 -4.134720000000000102e-14 0.000000000000000000e+00 -4.770830000000000256e-15 0.000000000000000000e+00 2.000000000000000000e+01 -1.272220000000000308e-14 -6.361109999999999741e-15 2.400000000000000000e+01 -1.709550000000000021e-14 -4.452779999999999910e-14 2.000000000000000000e+01 -1.431249999999999897e-14 -3.975690000000000198e-14 0.000000000000000000e+00 -4.770830000000000256e-15 0.000000000000000000e+00 1.997479999999999833e+01 -1.025649999999999951e+00 -2.819380000000000219e+00 2.400000000000000000e+01 3.975690000000000513e-15 -3.816669999999999125e-14 2.000000000000000000e+01 3.180549999999999982e-15 -2.862499999999999793e-14 0.000000000000000000e+00 -4.770830000000000256e-15 0.000000000000000000e+00 1.978150000000000119e+01 -3.009479999999999933e+00 -8.305149999999999366e+00 2.400000000000000000e+01 -7.951389999999983449e-16 -1.908330000000000147e-14 2.000000000000000000e+01 -7.951389999999999226e-15 -1.908330000000000462e-14 1.337160000000000259e+01 -1.424529999999999852e+01 -3.356170000000000186e+01 -2.025420000000000087e+01 3.421829999999999927e+01 -7.789019999999997879e+01 2.742040000000000077e+01 -5.891879999999999740e+01 3.197139999999999560e+01 -1.755920000000000059e+01 -2.599839999999999662e+01 1.155470000000000041e+01 -2.818400000000000105e+01 1.072940000000000005e+01 -1.915919999999999845e+01 1.291849999999999880e-14 0.000000000000000000e+00 1.000000000000000000e+01 -1.670890000000000454e-14 3.180549999999998799e-15 1.000000000000000000e+01 0.000000000000000000e+00 -3.180549999999999587e-15 -7.951390000000001198e-16 -1.998179999999999978e+01 8.718970000000000331e-01 -2.396399999999999864e+00 -2.400000000000000000e+01 7.951389999999999226e-15 1.590280000000000116e-14 -2.000000000000000000e+01 3.180550000000000771e-15 0.000000000000000000e+00 0.000000000000000000e+00 -3.180549999999999587e-15 -7.951390000000001198e-16 -2.000000000000000000e+01 -3.180549999999999982e-15 6.361109999999999741e-15 -2.400000000000000000e+01 -7.951389999999999226e-15 9.541660000000000512e-15 -2.000000000000000000e+01 -4.770830000000000256e-15 2.226390000000000270e-14 0.000000000000000000e+00 -3.180549999999999587e-15 -7.951390000000001198e-16 -1.997479999999999833e+01 -1.025649999999999951e+00 2.819380000000000219e+00 -2.400000000000000000e+01 -1.590280000000000274e-15 3.180550000000000771e-15 -2.000000000000000000e+01 1.590280000000000274e-15 3.180549999999999587e-15 0.000000000000000000e+00 -3.180549999999999587e-15 -7.951390000000001198e-16 -1.978150000000000119e+01 -3.009479999999999933e+00 8.305149999999999366e+00 -2.400000000000000000e+01 -9.541660000000000512e-15 -3.180549999999999982e-15 -2.000000000000000000e+01 2.385419999999999228e-15 6.361109999999999741e-15
